<mxfile host="app.diagrams.net" modified="2024-02-05T02:05:44.366Z" agent="Mozilla/5.0 (Windows NT 10.0; Win64; x64) AppleWebKit/537.36 (KHTML, like Gecko) Chrome/119.0.0.0 Safari/537.36" version="23.0.1" etag="lCGRZ81TvySMj6CyEhKc" type="github">
  <diagram name="第 1 页" id="zhVuVEIi4RmrpoR2sseB">
    <mxGraphModel>
      <root>
        <mxCell id="0" />
        <mxCell id="1" parent="0" />
      </root>
    </mxGraphModel>
  </diagram>
</mxfile>
